<?xml version="1.0" encoding="UTF-8"?>
<!DOCTYPE svg PUBLIC "-//W3C//DTD SVG 1.1//EN" "http://www.w3.org/Graphics/SVG/1.1/DTD/svg11.dtd">
<svg xmlns="http://www.w3.org/2000/svg" version="1.1" width="1899px" height="1437px" style="shape-rendering:geometricPrecision; text-rendering:geometricPrecision; image-rendering:optimizeQuality; fill-rule:evenodd; clip-rule:evenodd" xmlns:xlink="http://www.w3.org/1999/xlink">
<g><path style="opacity:0.99" fill="#f3f3f4" d="M 1119.5,-0.5 C 1130.5,-0.5 1141.5,-0.5 1152.5,-0.5C 1163.8,0.667112 1175.13,2.50045 1186.5,5C 1191.98,6.32151 1196.81,8.82151 1201,12.5C 1203.09,17.6282 1204.43,22.9616 1205,28.5C 1207.96,59.5862 1213.29,90.2529 1221,120.5C 1228.58,148.171 1241.75,172.671 1260.5,194C 1285.94,214.398 1313.94,230.731 1344.5,243C 1374.34,255.17 1404.84,265.337 1436,273.5C 1451.24,259.976 1462.57,262.643 1470,281.5C 1471.78,288.047 1472.78,294.714 1473,301.5C 1473.67,314.833 1473.67,328.167 1473,341.5C 1449.89,329.465 1425.39,321.632 1399.5,318C 1384.57,315.748 1369.57,314.081 1354.5,313C 1325.83,311.4 1297.16,309.733 1268.5,308C 1255.77,306.974 1243.1,305.474 1230.5,303.5C 1232.87,302.622 1233.71,300.955 1233,298.5C 1201.31,230.763 1165.31,165.763 1125,103.5C 1111.35,83.8372 1096.18,65.3372 1079.5,48C 1066.41,34.9609 1051.08,25.7943 1033.5,20.5C 1061.37,9.69928 1090.03,2.69928 1119.5,-0.5 Z"/></g>
<g><path style="opacity:0.994" fill="#fefefe" d="M 1033.5,20.5 C 1051.08,25.7943 1066.41,34.9609 1079.5,48C 1096.18,65.3372 1111.35,83.8372 1125,103.5C 1165.31,165.763 1201.31,230.763 1233,298.5C 1233.71,300.955 1232.87,302.622 1230.5,303.5C 1227.62,305.349 1225.62,304.682 1224.5,301.5C 1197.03,242.214 1166.19,184.881 1132,129.5C 1114.51,101.662 1094.34,75.8283 1071.5,52C 1061.07,42.1175 1049.07,34.7842 1035.5,30C 1026.67,28.2918 1018.5,29.7918 1011,34.5C 1009.83,33.4558 1008.66,32.4558 1007.5,31.5C 1006.2,30.399 1005.7,29.0657 1006,27.5C 1014.25,21.8143 1023.41,19.481 1033.5,20.5 Z"/></g>
<g><path style="opacity:0.988" fill="#f3f3f4" d="M 1224.5,301.5 C 1208.93,297.717 1194.6,291.217 1181.5,282C 1165.77,269.948 1150.94,256.781 1137,242.5C 1123.28,227.387 1110.28,211.72 1098,195.5C 1076.05,164.553 1053.72,133.886 1031,103.5C 1011.12,76.9704 984.616,61.9704 951.5,58.5C 969.361,47.9035 988.027,38.9035 1007.5,31.5C 1008.66,32.4558 1009.83,33.4558 1011,34.5C 1018.5,29.7918 1026.67,28.2918 1035.5,30C 1049.07,34.7842 1061.07,42.1175 1071.5,52C 1094.34,75.8283 1114.51,101.662 1132,129.5C 1166.19,184.881 1197.03,242.214 1224.5,301.5 Z"/></g>
<g><path style="opacity:0.994" fill="#d1d1d3" d="M 818.5,442.5 C 865.838,442.833 913.171,442.5 960.5,441.5C 960.376,440.893 960.043,440.56 959.5,440.5C 946.406,424.897 933.072,409.397 919.5,394C 874.096,393.828 828.762,393.328 783.5,392.5C 775.512,378.527 767.512,364.527 759.5,350.5C 802.998,349.667 846.665,349.167 890.5,349C 877.208,332.706 863.541,316.706 849.5,301C 811.835,300.5 774.168,300.333 736.5,300.5C 732.364,286.29 728.698,271.957 725.5,257.5C 759.502,257.667 793.502,257.5 827.5,257C 814.07,240.814 800.404,224.814 786.5,209C 764.996,208.832 743.663,208.332 722.5,207.5C 723.707,186.256 732.04,168.423 747.5,154C 764.481,143.698 782.481,141.698 801.5,148C 823.638,155.236 844.638,164.903 864.5,177C 926.767,215.259 980.267,263.426 1025,321.5C 1049.37,357.559 1070.71,395.559 1089,435.5C 1110.82,482.614 1130.48,530.614 1148,579.5C 1149.88,592.947 1144.38,601.78 1131.5,606C 1126.61,607.512 1121.61,608.512 1116.5,609C 1074.96,611.039 1033.63,609.039 992.5,603C 981.306,601.118 970.306,598.452 959.5,595C 954.508,592.839 949.841,590.172 945.5,587C 927.067,571.902 909.9,555.402 894,537.5C 866.9,507.26 841.733,475.594 818.5,442.5 Z"/></g>
<g><path style="opacity:0.983" fill="#e33e25" d="M 722.5,207.5 C 743.663,208.332 764.996,208.832 786.5,209C 800.404,224.814 814.07,240.814 827.5,257C 793.502,257.5 759.502,257.667 725.5,257.5C 668.499,257.333 611.499,257.5 554.5,258C 449.637,265.323 368.804,312.823 312,400.5C 266.825,477.905 257.159,559.572 283,645.5C 319.397,747.898 389.897,813.731 494.5,843C 511.604,847.158 528.937,849.824 546.5,851C 746.166,851.5 945.833,851.667 1145.5,851.5C 1154.61,855.219 1163.61,859.219 1172.5,863.5C 1159.83,864.167 1147.17,864.833 1134.5,865.5C 1053.59,868.354 972.921,874.52 892.5,884C 885.327,889.047 884.661,894.88 890.5,901.5C 774.833,901.667 659.166,901.5 543.5,901C 427.66,890.527 337.493,837.36 273,741.5C 214.324,644.41 203.324,542.076 240,434.5C 286.081,319.424 369.248,246.591 489.5,216C 510.26,211.447 531.26,208.78 552.5,208C 609.166,207.5 665.832,207.333 722.5,207.5 Z"/></g>
<g><path style="opacity:0.984" fill="#e33e25" d="M 736.5,300.5 C 774.168,300.333 811.835,300.5 849.5,301C 863.541,316.706 877.208,332.706 890.5,349C 846.665,349.167 802.998,349.667 759.5,350.5C 692.166,350.333 624.833,350.5 557.5,351C 481.312,360.646 425.812,399.479 391,467.5C 359.705,540.592 366.371,609.925 411,675.5C 446.861,722.694 494.361,750.194 553.5,758C 714.484,759.483 875.484,759.983 1036.5,759.5C 1051.41,777.083 1067.41,793.749 1084.5,809.5C 910.833,809.667 737.166,809.5 563.5,809C 464.214,800.641 391.714,752.474 346,664.5C 315.633,596.685 313.633,528.018 340,458.5C 374.495,379.674 433.328,329.174 516.5,307C 529.029,304.134 541.695,302.134 554.5,301C 615.166,300.5 675.832,300.333 736.5,300.5 Z"/></g>
<g><path style="opacity:0.997" fill="#fefefe" d="M 1246.5,365.5 C 1285.42,483.421 1334.92,596.754 1395,705.5C 1407.36,728.048 1422.53,748.548 1440.5,767C 1472.82,796.499 1510.49,806.499 1553.5,797C 1585.22,789.302 1614.55,776.469 1641.5,758.5C 1644.16,760.089 1646.16,762.422 1647.5,765.5C 1645.45,767.547 1643.12,769.214 1640.5,770.5C 1619.67,782.73 1597.67,792.563 1574.5,800C 1513.34,820.076 1461.84,805.91 1420,757.5C 1406.18,739.862 1393.84,721.196 1383,701.5C 1324.99,593.794 1276.49,481.96 1237.5,366C 1238.06,365.617 1238.39,365.117 1238.5,364.5C 1240.55,364.039 1242.55,363.372 1244.5,362.5C 1245.92,363.005 1246.59,364.005 1246.5,365.5 Z"/></g>
<g><path style="opacity:0.985" fill="#f3f3f4" d="M 1238.5,364.5 C 1238.39,365.117 1238.06,365.617 1237.5,366C 1276.49,481.96 1324.99,593.794 1383,701.5C 1393.84,721.196 1406.18,739.862 1420,757.5C 1461.84,805.91 1513.34,820.076 1574.5,800C 1597.67,792.563 1619.67,782.73 1640.5,770.5C 1637.08,787.504 1628.08,800.67 1613.5,810C 1569.48,840.619 1521.14,850.285 1468.5,839C 1449.56,831.225 1433.22,819.725 1419.5,804.5C 1392.73,775.571 1369.23,744.238 1349,710.5C 1314.18,651.878 1282.18,591.544 1253,529.5C 1227.35,474.711 1202.18,419.711 1177.5,364.5C 1197.83,363.629 1218.16,363.629 1238.5,364.5 Z"/></g>
<g><path style="opacity:0.992" fill="#f3f3f4" d="M 1246.5,365.5 C 1301.4,367.223 1355.4,375.056 1408.5,389C 1422.64,393.268 1436.64,397.934 1450.5,403C 1457.5,405.835 1464.17,409.169 1470.5,413C 1469.17,426.131 1468.17,439.297 1467.5,452.5C 1483.62,454.93 1498.62,460.43 1512.5,469C 1550.81,493.66 1578.65,527.16 1596,569.5C 1599.7,579.645 1600.36,589.979 1598,600.5C 1594.91,607.256 1589.74,611.423 1582.5,613C 1576.78,613.717 1571.11,613.384 1565.5,612C 1557.44,609.135 1549.77,605.469 1542.5,601C 1519.85,584.023 1498.68,565.189 1479,544.5C 1482.35,560.247 1486.35,575.913 1491,591.5C 1500.03,621.195 1518.86,642.029 1547.5,654C 1564.47,658.106 1581.47,662.106 1598.5,666C 1614.73,669.9 1625.57,679.733 1631,695.5C 1637.74,715.944 1641.24,736.944 1641.5,758.5C 1614.55,776.469 1585.22,789.302 1553.5,797C 1510.49,806.499 1472.82,796.499 1440.5,767C 1422.53,748.548 1407.36,728.048 1395,705.5C 1334.92,596.754 1285.42,483.421 1246.5,365.5 Z M 1465.5,469.5 C 1480.28,472.224 1493.95,477.724 1506.5,486C 1542.06,510.561 1566.56,543.395 1580,584.5C 1580.98,587.669 1580.48,590.503 1578.5,593C 1574.68,593.401 1571.02,592.734 1567.5,591C 1558.36,586.85 1550.03,581.517 1542.5,575C 1517.76,553.26 1493.92,530.427 1471,506.5C 1469.23,504.404 1467.9,502.071 1467,499.5C 1465.74,489.541 1465.24,479.541 1465.5,469.5 Z"/></g>
<g><path style="opacity:0.986" fill="#e33e25" d="M 783.5,392.5 C 828.762,393.328 874.096,393.828 919.5,394C 933.072,409.397 946.406,424.897 959.5,440.5C 912.5,441.167 865.5,441.833 818.5,442.5C 737.833,442.333 657.166,442.5 576.5,443C 521.908,450.926 488.408,481.759 476,535.5C 469.801,585.927 487.968,624.761 530.5,652C 543.561,659.465 557.561,664.131 572.5,666C 717.5,666.5 862.5,666.667 1007.5,666.5C 1002.27,675.201 1001.1,684.534 1004,694.5C 1006.41,701.883 1008.91,709.216 1011.5,716.5C 863.833,716.667 716.166,716.5 568.5,716C 507.04,707.199 463.207,674.699 437,618.5C 413.316,555.615 422.649,498.281 465,446.5C 491.472,417.344 524.305,399.844 563.5,394C 636.813,392.532 710.146,392.032 783.5,392.5 Z"/></g>
<g><path style="opacity:0.937" fill="#d5b9ab" d="M 959.5,440.5 C 960.043,440.56 960.376,440.893 960.5,441.5C 913.171,442.5 865.838,442.833 818.5,442.5C 865.5,441.833 912.5,441.167 959.5,440.5 Z"/></g>
<g><path style="opacity:1" fill="#fefefe" d="M 1391.5,462.5 C 1392.5,462.5 1393.5,462.5 1394.5,462.5C 1395.07,465.477 1396.07,468.31 1397.5,471C 1392.1,473.854 1386.44,476.021 1380.5,477.5C 1380.29,479.714 1381.12,481.381 1383,482.5C 1388.21,480.598 1393.37,478.598 1398.5,476.5C 1401.17,479.493 1402.17,482.826 1401.5,486.5C 1385.94,492.407 1370.44,498.407 1355,504.5C 1353.12,501.522 1351.62,498.355 1350.5,495C 1358.15,492.294 1365.48,489.128 1372.5,485.5C 1372.17,483.833 1371.17,482.833 1369.5,482.5C 1362.49,484.757 1355.66,487.424 1349,490.5C 1347.36,487.258 1346.36,483.924 1346,480.5C 1361.29,474.575 1376.46,468.575 1391.5,462.5 Z"/></g>
<g><path style="opacity:1" fill="#fefefe" d="M 1401.5,490.5 C 1403.91,490.137 1405.41,491.137 1406,493.5C 1408.05,497.302 1409.05,501.302 1409,505.5C 1400.91,510.127 1392.75,514.627 1384.5,519C 1394.14,517.175 1403.8,515.508 1413.5,514C 1415.13,517.427 1416.63,520.927 1418,524.5C 1418.78,525.944 1418.61,527.277 1417.5,528.5C 1401.94,534.407 1386.44,540.407 1371,546.5C 1368.89,543.687 1368.06,540.687 1368.5,537.5C 1378.17,533.667 1387.83,529.833 1397.5,526C 1387.33,527.433 1377.16,529.267 1367,531.5C 1364.1,529.897 1362.27,527.397 1361.5,524C 1371.17,517.497 1381.17,511.497 1391.5,506C 1380.72,508.817 1370.22,512.651 1360,517.5C 1357.78,514.853 1356.78,511.853 1357,508.5C 1372.04,502.771 1386.87,496.771 1401.5,490.5 Z"/></g>
<g><path style="opacity:1" fill="#fefefe" d="M 1466.5,586.5 C 1468.17,586.5 1469.83,586.5 1471.5,586.5C 1487.56,635.057 1520.23,666.557 1569.5,681C 1577.44,682.824 1585.44,684.324 1593.5,685.5C 1592.63,687.747 1592.29,690.08 1592.5,692.5C 1535.22,686.282 1494.05,657.282 1469,605.5C 1466.45,599.697 1464.62,593.697 1463.5,587.5C 1464.79,587.737 1465.79,587.404 1466.5,586.5 Z"/></g>
<g><path style="opacity:0.995" fill="#d1d1d3" d="M 890.5,901.5 C 884.661,894.88 885.327,889.047 892.5,884C 972.921,874.52 1053.59,868.354 1134.5,865.5C 1147.84,865.667 1161.17,865.5 1174.5,865C 1173.96,864.283 1173.29,863.783 1172.5,863.5C 1163.61,859.219 1154.61,855.219 1145.5,851.5C 1123.95,839.228 1103.62,825.228 1084.5,809.5C 1067.41,793.749 1051.41,777.083 1036.5,759.5C 1027.42,745.686 1019.09,731.352 1011.5,716.5C 1008.91,709.216 1006.41,701.883 1004,694.5C 1001.1,684.534 1002.27,675.201 1007.5,666.5C 1009.58,663.949 1012.24,662.116 1015.5,661C 1071.05,654.669 1125.88,658.836 1180,673.5C 1185.33,675.276 1190.5,677.443 1195.5,680C 1211.08,691.578 1226.08,703.911 1240.5,717C 1289.87,762.037 1339.53,806.704 1389.5,851C 1405.51,865.346 1423.51,876.68 1443.5,885C 1449.11,890.999 1448.78,896.666 1442.5,902C 1258.43,902.832 1074.43,902.665 890.5,901.5 Z"/></g>
<g><path style="opacity:1" fill="#daa189" d="M 1172.5,863.5 C 1173.29,863.783 1173.96,864.283 1174.5,865C 1161.17,865.5 1147.84,865.667 1134.5,865.5C 1147.17,864.833 1159.83,864.167 1172.5,863.5 Z"/></g>
<g><path style="opacity:0.991" fill="#d0d2d3" d="M 1375.5,1436.5 C 1364.83,1436.5 1354.17,1436.5 1343.5,1436.5C 1302.18,1431.24 1275.68,1408.58 1264,1368.5C 1261.4,1359 1259.74,1349.33 1259,1339.5C 1258.33,1263.5 1258.33,1187.5 1259,1111.5C 1265.29,1051.39 1298.79,1021.06 1359.5,1020.5C 1422.46,1021.63 1455.96,1053.63 1460,1116.5C 1460.67,1188.83 1460.67,1261.17 1460,1333.5C 1459.6,1363.39 1449.77,1389.56 1430.5,1412C 1414.68,1425.88 1396.35,1434.05 1375.5,1436.5 Z M 1359.5,1096.5 C 1369.81,1097.98 1375.65,1103.98 1377,1114.5C 1378.13,1151.65 1378.63,1188.81 1378.5,1226C 1378.63,1263.85 1378.13,1301.68 1377,1339.5C 1376.49,1348.7 1372.33,1355.53 1364.5,1360C 1351.58,1361.95 1344.08,1356.45 1342,1343.5C 1340.86,1304.86 1340.36,1266.19 1340.5,1227.5C 1340.67,1191.5 1340.83,1155.5 1341,1119.5C 1341.56,1106.93 1347.73,1099.26 1359.5,1096.5 Z"/></g>
<g><path style="opacity:0.989" fill="#d0d2d3" d="M -0.5,1024.5 C 26.8333,1024.5 54.1667,1024.5 81.5,1024.5C 81.5,1073.17 81.5,1121.83 81.5,1170.5C 93.8333,1170.5 106.167,1170.5 118.5,1170.5C 118.5,1121.83 118.5,1073.17 118.5,1024.5C 145.833,1024.5 173.167,1024.5 200.5,1024.5C 200.5,1160.83 200.5,1297.17 200.5,1433.5C 173.167,1433.5 145.833,1433.5 118.5,1433.5C 118.5,1371.83 118.5,1310.17 118.5,1248.5C 106.167,1248.5 93.8333,1248.5 81.5,1248.5C 81.5,1310.17 81.5,1371.83 81.5,1433.5C 54.1667,1433.5 26.8333,1433.5 -0.5,1433.5C -0.5,1297.17 -0.5,1160.83 -0.5,1024.5 Z"/></g>
<g><path style="opacity:0.985" fill="#d0d2d3" d="M 239.5,1024.5 C 266.167,1024.5 292.833,1024.5 319.5,1024.5C 319.5,1160.83 319.5,1297.17 319.5,1433.5C 292.833,1433.5 266.167,1433.5 239.5,1433.5C 239.5,1297.17 239.5,1160.83 239.5,1024.5 Z"/></g>
<g><path style="opacity:0.986" fill="#d0d2d3" d="M 357.5,1024.5 C 384.833,1024.5 412.167,1024.5 439.5,1024.5C 439.333,1076.5 439.5,1128.5 440,1180.5C 451.873,1128.8 463.873,1077.14 476,1025.5C 503.767,1024.17 531.601,1024.17 559.5,1025.5C 544.09,1087.64 528.757,1149.81 513.5,1212C 532.23,1285.75 550.563,1359.59 568.5,1433.5C 539.926,1433.83 511.426,1433.5 483,1432.5C 468.667,1368.83 454.333,1305.17 440,1241.5C 439.5,1305.5 439.333,1369.5 439.5,1433.5C 412.167,1433.5 384.833,1433.5 357.5,1433.5C 357.5,1297.17 357.5,1160.83 357.5,1024.5 Z"/></g>
<g><path style="opacity:0.987" fill="#d0d2d3" d="M 585.5,1024.5 C 640.167,1024.5 694.833,1024.5 749.5,1024.5C 749.5,1051.17 749.5,1077.83 749.5,1104.5C 722.833,1104.5 696.167,1104.5 669.5,1104.5C 669.5,1130.5 669.5,1156.5 669.5,1182.5C 695.167,1182.5 720.833,1182.5 746.5,1182.5C 746.5,1208.5 746.5,1234.5 746.5,1260.5C 720.833,1260.5 695.167,1260.5 669.5,1260.5C 669.5,1291.17 669.5,1321.83 669.5,1352.5C 697.833,1352.5 726.167,1352.5 754.5,1352.5C 754.5,1379.5 754.5,1406.5 754.5,1433.5C 698.167,1433.5 641.833,1433.5 585.5,1433.5C 585.5,1297.17 585.5,1160.83 585.5,1024.5 Z"/></g>
<g><path style="opacity:0.985" fill="#d0d2d3" d="M 900.5,1024.5 C 942.406,1024.17 984.239,1024.5 1026,1025.5C 1036.77,1106.01 1048.1,1186.34 1060,1266.5C 1071,1186.17 1082,1105.83 1093,1025.5C 1135.09,1024.5 1177.26,1024.17 1219.5,1024.5C 1219.5,1160.83 1219.5,1297.17 1219.5,1433.5C 1194.17,1433.5 1168.83,1433.5 1143.5,1433.5C 1143.67,1339.5 1143.5,1245.5 1143,1151.5C 1127.84,1245.46 1113.01,1339.46 1098.5,1433.5C 1073.5,1433.5 1048.5,1433.5 1023.5,1433.5C 1007.99,1338.79 992.16,1244.13 976,1149.5C 975.5,1244.17 975.333,1338.83 975.5,1433.5C 950.5,1433.5 925.5,1433.5 900.5,1433.5C 900.5,1297.17 900.5,1160.83 900.5,1024.5 Z"/></g>
<g><path style="opacity:0.988" fill="#d0d2d3" d="M 1486.5,1024.5 C 1512.83,1024.5 1539.17,1024.5 1565.5,1024.5C 1574.74,1114.19 1584.24,1203.85 1594,1293.5C 1603.36,1203.9 1612.19,1114.24 1620.5,1024.5C 1646.84,1024.17 1673.18,1024.5 1699.5,1025.5C 1682.42,1161.11 1665.59,1296.78 1649,1432.5C 1611.57,1433.5 1574.07,1433.83 1536.5,1433.5C 1519.92,1297.16 1503.25,1160.82 1486.5,1024.5 Z"/></g>
<g><path style="opacity:0.985" fill="#d0d2d3" d="M 1898.5,1352.5 C 1898.5,1379.5 1898.5,1406.5 1898.5,1433.5C 1841.83,1433.5 1785.17,1433.5 1728.5,1433.5C 1728.5,1297.17 1728.5,1160.83 1728.5,1024.5C 1783.17,1024.5 1837.83,1024.5 1892.5,1024.5C 1892.5,1051.17 1892.5,1077.83 1892.5,1104.5C 1865.83,1104.5 1839.17,1104.5 1812.5,1104.5C 1812.5,1130.5 1812.5,1156.5 1812.5,1182.5C 1838.17,1182.5 1863.83,1182.5 1889.5,1182.5C 1889.5,1208.5 1889.5,1234.5 1889.5,1260.5C 1863.83,1260.5 1838.17,1260.5 1812.5,1260.5C 1812.5,1291.17 1812.5,1321.83 1812.5,1352.5C 1841.17,1352.5 1869.83,1352.5 1898.5,1352.5 Z"/></g>
</svg>
